<svg t="1641393564599" class="icon" viewBox="0 0 1024 1024" version="1.1" xmlns="http://www.w3.org/2000/svg" p-id="23369" width="200" height="200"><path d="M512.194455 0.00003A511.992505 511.992505 0 1 0 1023.99996 511.992535 512.551504 512.551504 0 0 0 512.194455 0.00003z m0 949.190082a437.384577 437.384577 0 1 1 437.198577-437.197577A437.757577 437.757577 0 0 1 512.194455 949.189112z" p-id="23370" fill="#ffffff"></path><path d="M410.542553 286.864753a37.303964 37.303964 0 0 0-37.303964 37.303964v375.459637a37.303964 37.303964 0 0 0 74.606928 0V324.169717a37.303964 37.303964 0 0 0-37.302964-37.303964z m205.169802 0a37.303964 37.303964 0 0 0-37.303964 37.303964v375.459637a37.303964 37.303964 0 1 0 74.606928 0V324.169717a37.303964 37.303964 0 0 0-37.302964-37.303964z" p-id="23371" fill="#ffffff"></path></svg>
